<svg width="28" height="24" viewBox="0 0 28 24" fill="none" xmlns="http://www.w3.org/2000/svg">
<path d="M23.6007 0L28 7.5H23.0854L19.7215 0H23.6007ZM17.3785 0L20.7424 7.5H7.25764L10.6215 0H17.3785ZM4.39931 0H8.27847L4.91458 7.5H0L4.39931 0ZM0 9H4.89514L10.8743 20.7984C10.9472 20.9438 10.7431 21.075 10.6313 20.9531L0 9ZM7.20417 9H20.7958L14.1361 23.9156C14.0875 24.0281 13.9174 24.0281 13.8687 23.9156L7.20417 9ZM17.1257 20.7984L23.1049 9H28L17.3687 20.9484C17.2569 21.075 17.0528 20.9438 17.1257 20.7984Z" fill="#5548BD"/>
</svg>
