<svg width="28" height="25" viewBox="0 0 28 25" fill="none" xmlns="http://www.w3.org/2000/svg">
<path d="M1.75 23.2143C1.75 24.202 2.53203 25 3.5 25H12.25V16.0714H1.75V23.2143ZM26.25 7.14286H23.9477C24.2867 6.46763 24.5 5.71987 24.5 4.91071C24.5 2.20424 22.3398 0 19.6875 0C17.4125 0 15.9414 1.18862 14.0547 3.81138C12.168 1.18862 10.6969 0 8.42188 0C5.76953 0 3.60938 2.20424 3.60938 4.91071C3.60938 5.71987 3.81719 6.46763 4.16172 7.14286H1.75C0.782031 7.14286 0 7.94085 0 8.92857V13.3929C0 13.8839 0.39375 14.2857 0.875 14.2857H27.125C27.6063 14.2857 28 13.8839 28 13.3929V8.92857C28 7.94085 27.218 7.14286 26.25 7.14286ZM8.41641 7.14286C7.20781 7.14286 6.22891 6.14397 6.22891 4.91071C6.22891 3.67746 7.20781 2.67857 8.41641 2.67857C9.50469 2.67857 10.3086 2.86272 13.125 7.14286H8.41641ZM19.6875 7.14286H14.9789C17.7898 2.87388 18.5719 2.67857 19.6875 2.67857C20.8961 2.67857 21.875 3.67746 21.875 4.91071C21.875 6.14397 20.8961 7.14286 19.6875 7.14286ZM15.75 25H24.5C25.468 25 26.25 24.202 26.25 23.2143V16.0714H15.75V25Z" fill="#FF1577"/>
</svg>
