<svg width="32" height="22" viewBox="0 0 32 22" fill="none" xmlns="http://www.w3.org/2000/svg">
<path d="M27.2 9.42857L20.8 8.64286L18.4 7.85714H17.2L11.3579 0.589286H13.3334C13.9166 0.589286 14.4 0.460379 14.4 0.294643C14.4 0.128906 13.9166 0 13.3334 0H7.6V0.589286H8.4V8.64286H6L2.66665 4.71429H0.93335L0.4 5.23811V8.64286H0.8V9.42857H3.2V9.55949L0 9.95235V12.0476L3.2 12.4405V12.5714H0.8V13.3571H0.4V16.7619L0.93335 17.2857H2.6667L6 13.3571H8.4V21.4107H7.6V22H13.3334C13.9167 22 14.4 21.8711 14.4 21.7054C14.4 21.5396 13.9166 21.4107 13.3334 21.4107H11.3579L17.2 14.1429H18.4L20.8 13.3571L27.2 12.5714C32 11.5238 32 11.266 32 11C32 10.734 32 10.4762 27.2 9.42857Z" fill="#FFBD14"/>
</svg>
